<svg xmlns="http://www.w3.org/2000/svg" viewBox="0 0 100 100">
  <defs>
    <radialGradient id="bg" cx="50%" cy="32%" r="78%">
      <stop offset="0%" stop-color="#2a2118"/>
      <stop offset="100%" stop-color="#15110d"/>
    </radialGradient>
    <linearGradient id="gold" x1="15%" y1="0%" x2="85%" y2="100%">
      <stop offset="0%" stop-color="#e3b657"/>
      <stop offset="100%" stop-color="#c9a227"/>
    </linearGradient>
  </defs>
  <rect x="0" y="0" width="100" height="100" rx="24" fill="url(#bg)"/>
  <g transform="translate(22.06,82.88) scale(0.1260,-0.1260)" fill="url(#gold)">
    <path d="M239 523H222L178 370C294 308 375 235 396 177C334 169 223 164 175 164C56 164 62 197 49 248H32C28 203 24 146 24 120C24 37 63 -1 144 -1C198 -1 291 16 357 46L391 122C442 234 420 314 362 391L382 428Z"/>
  </g>
</svg>
